<svg width="250" height="50" viewBox="0 0 300 50" fill="none" xmlns="http://www.w3.org/2000/svg">
<g id="opentag">
<path id="open" d="M12.6364 5H25L13.3636 17L25 29H12.6364L1 17L12.6364 5Z" stroke="#66fcf1" stroke-width="0.5"/>
</g>
<g id="closetag">
<path id="close" d="M245.75 5H233L244.25 17L233 29H245.75L257 17L245.75 5Z" stroke="#66fcf1" stroke-width="0.5"/>
</g>
<g id="closeslash">
<path id="slash" d="M230.245 0.877065L225.136 0.646122L213.864 32.6742L218.974 32.9052L230.245 0.877065Z" stroke="#66fcf1" stroke-width="0.5"/>
</g>
<g id="centertext">
<path id="D" d="M32.75 28.336V28.586H33H40.808C43.1873 28.586 45.2865 28.1208 47.0983 27.1823C48.9308 26.2442 50.3433 24.9207 51.3285 23.213C52.3349 21.4843 52.834 19.4772 52.834 17.2C52.834 14.9232 52.3351 12.9164 51.329 11.1878C50.3443 9.43804 48.9321 8.09249 47.0985 7.15374C45.2866 6.21519 43.1874 5.75 40.808 5.75H33H32.75V6V28.336ZM45.9083 11.9339L45.9098 11.9353C47.1321 13.178 47.758 14.9214 47.758 17.2C47.758 19.4788 47.132 21.2104 45.9112 22.4312C44.6908 23.6516 42.9489 24.278 40.648 24.278H37.73V10.026H40.648C42.9466 10.026 44.6875 10.6724 45.9083 11.9339L45.9083 11.9339Z" stroke="#66fcf1" stroke-width="0.5"/>
<path id="e" d="M75.504 20.746H75.7158L75.7506 20.5371C75.8386 20.0088 75.882 19.4187 75.882 18.768C75.882 17.0038 75.5007 15.4357 74.7308 14.0711C73.9825 12.6855 72.9133 11.6165 71.5274 10.8684C70.1639 10.1208 68.618 9.75 66.896 9.75C65.1101 9.75 63.5206 10.1315 62.1346 10.9015C60.7477 11.6719 59.6686 12.7738 58.8999 14.2015C58.1306 15.6302 57.75 17.2828 57.75 19.152C57.75 21.0004 58.1308 22.6423 58.8999 24.0705L58.8999 24.0705L58.9013 24.0731C59.6909 25.4988 60.7792 26.6098 62.164 27.4011L62.1639 27.4011L62.168 27.4033C63.5736 28.172 65.1516 28.554 66.896 28.554C69.0528 28.554 70.8892 27.9976 72.39 26.872L72.3919 26.8706C73.8832 25.7301 74.8959 24.2783 75.4235 22.5198L75.52 22.198H75.184H70.352H70.1965L70.1277 22.3375C69.7936 23.016 69.3519 23.5129 68.8068 23.842C68.261 24.1714 67.5958 24.342 66.8 24.342C65.7055 24.342 64.7967 23.9995 64.0572 23.3199C63.3777 22.6956 62.9612 21.8446 62.8215 20.746H75.504ZM69.5801 14.9248L69.5801 14.9248L69.583 14.9272C70.2736 15.5088 70.6579 16.2724 70.7303 17.238H62.8709C63.0633 16.2294 63.4829 15.4534 64.1178 14.8911L64.1181 14.8909C64.8365 14.2522 65.7146 13.93 66.768 13.93C67.8871 13.93 68.8192 14.264 69.5801 14.9248Z" stroke="#66fcf1" stroke-width="0.5"/>
<path id="v" d="M92.5226 9.92178L88.28 22.801L84.0374 9.92178L83.9809 9.75H83.8H79H78.6415L78.7654 10.0864L85.2934 27.8144L85.3536 27.978H85.528H90.968H91.1421L91.2025 27.8148L97.7625 10.0868L97.8871 9.75H97.528H92.76H92.5791L92.5226 9.92178Z" stroke="#66fcf1" stroke-width="0.5"/>
<path id="D_2" d="M111.75 28.336V28.586H112H119.808C122.187 28.586 124.286 28.1208 126.098 27.1823C127.931 26.2442 129.343 24.9207 130.328 23.213C131.335 21.4843 131.834 19.4772 131.834 17.2C131.834 14.9232 131.335 12.9164 130.329 11.1878C129.344 9.43804 127.932 8.09249 126.098 7.15374C124.287 6.21519 122.187 5.75 119.808 5.75H112H111.75V6V28.336ZM124.908 11.9339L124.91 11.9353C126.132 13.178 126.758 14.9214 126.758 17.2C126.758 19.4788 126.132 21.2104 124.911 22.4312C123.691 23.6516 121.949 24.278 119.648 24.278H116.73V10.026H119.648C121.947 10.026 123.688 10.6724 124.908 11.9339L124.908 11.9339Z" stroke="#66fcf1" stroke-width="0.5"/>
<path id="a" d="M137.834 14.2041L137.834 14.2041L137.833 14.2068C137.109 15.6336 136.75 17.2627 136.75 19.088C136.75 20.9342 137.109 22.5842 137.832 24.0318L137.832 24.0318L137.834 24.0359C138.578 25.458 139.578 26.5698 140.834 27.3634L140.836 27.3644C142.114 28.1576 143.525 28.554 145.064 28.554C146.421 28.554 147.625 28.2802 148.669 27.7247L148.671 27.7238C149.48 27.2856 150.158 26.7603 150.702 26.1465V28.016V28.266H150.952H155.464H155.714V28.016V10.288V10.038H155.464H150.952H150.702V10.288V12.1206C150.148 11.5182 149.469 11.005 148.67 10.5798C147.646 10.0236 146.452 9.75 145.096 9.75C143.538 9.75 142.117 10.1346 140.839 10.906L140.839 10.9059L140.837 10.907C139.579 11.6795 138.579 12.7815 137.834 14.2041ZM150.092 16.4869L150.092 16.4869L150.093 16.4894C150.495 17.2124 150.702 18.0965 150.702 19.152C150.702 20.2067 150.495 21.1023 150.093 21.8479C149.687 22.5772 149.143 23.1404 148.46 23.5431C147.772 23.9267 147.036 24.118 146.248 24.118C145.484 24.118 144.76 23.9178 144.072 23.5134C143.41 23.1117 142.864 22.5379 142.435 21.7841C142.032 21.0156 141.826 20.1192 141.826 19.088C141.826 18.0552 142.032 17.1819 142.434 16.4584C142.863 15.7037 143.408 15.141 144.069 14.7607C144.734 14.3777 145.459 14.186 146.248 14.186C147.035 14.186 147.77 14.3871 148.457 14.7915L148.457 14.7915L148.462 14.7942C149.143 15.1746 149.686 15.7358 150.092 16.4869Z" stroke="#66fcf1" stroke-width="0.5"/>
<path id="r" d="M166.73 12.2097V10.256V10.006H166.48H162H161.75V10.256V27.984V28.234H162H166.48H166.73V27.984V19.152C166.73 17.5338 167.079 16.4697 167.706 15.8795C168.369 15.2761 169.364 14.954 170.736 14.954H171.92H172.17V14.704V10V9.75H171.92C170.687 9.75 169.577 10.0257 168.596 10.5826L168.596 10.5826L168.594 10.5839C167.87 11.005 167.248 11.5475 166.73 12.2097Z" stroke="#66fcf1" stroke-width="0.5"/>
<path id="y" d="M196.238 10.0969L196.384 9.75H196.008H191.24H191.067L191.006 9.91229L186.602 21.6671L182.259 9.91335L182.198 9.75H182.024H177H176.627L176.769 10.0951L183.833 27.2773L180.035 36.0123L179.883 36.362H180.264H185.032H185.198L185.262 36.2089L196.238 10.0969Z" stroke="#66fcf1" stroke-width="0.5"/>
<path id="l" d="M206.25 6V5.75H206H202H201.75V6V28V28.25H202H206H206.25V28V6Z" stroke="#66fcf1" stroke-width="0.5"/>
</g>
</svg>
